<svg width="16" height="17" viewBox="0 0 16 17" fill="none" xmlns="http://www.w3.org/2000/svg">
<g clip-path="url(#clip0_327_1193)">
<path d="M3 8.2444C3 7.77773 3.2 7.37773 3.53333 7.11106L11 0.577731C11.5333 0.111064 12.2667 0.177731 12.7333 0.711064C13.1333 1.2444 13.1333 1.97773 12.6 2.37773L6.06667 8.11106C6 8.17773 6 8.2444 6.06667 8.31106L12.6 14.0444C13.1333 14.5111 13.2 15.2444 12.7333 15.7777C12.2667 16.3111 11.5333 16.3777 11 15.9111C11 15.9111 11 15.9111 10.9333 15.8444L3.53333 9.37773C3.2 9.11106 3 8.6444 3 8.2444Z" fill="white"/>
</g>
<defs>
<clipPath id="clip0_327_1193">
<rect width="16" height="16" fill="white" transform="translate(0 0.244385)"/>
</clipPath>
</defs>
</svg>
