<svg width="15" height="16" viewBox="0 0 15 16" fill="none" xmlns="http://www.w3.org/2000/svg">
<path d="M14.0884 11.4217C12.8775 10.7847 11.7293 10.3323 10.7132 10.1146C11.1867 9.51059 11.5454 8.79439 11.7318 8.0359C12.182 7.85204 12.5002 7.40961 12.5002 6.89396V4.98524C12.5002 4.51439 12.235 4.10457 11.8461 3.89688C11.5892 1.74782 9.64173 0.00219727 7.50013 0.00219727C5.3586 0.00219727 3.41124 1.7477 3.15422 3.89665C2.76537 4.10433 2.50009 4.51416 2.50009 4.98498V6.89431C2.50009 7.40993 2.81825 7.85198 3.26845 8.03567C3.45477 8.79421 3.81348 9.51048 4.28699 10.1145C3.27114 10.3323 2.12284 10.7847 0.912113 11.4216C0.351615 11.7166 0 12.299 0 12.9322V14.3772C0 14.7224 0.27981 15.0022 0.624979 15.0022H14.3747C14.7199 15.0022 14.9997 14.7224 14.9997 14.3772V12.9322C14.9997 12.2989 14.6487 11.7166 14.0884 11.4217ZM4.37518 4.37711C4.37518 2.71325 5.88271 1.25216 7.50013 1.25216C9.11755 1.25216 10.6251 2.71328 10.6251 4.37711V6.87706C10.6251 7.13457 10.5951 7.39162 10.5398 7.64363C9.68101 7.91676 8.51918 8.12705 7.50034 8.12705C7.15517 8.12705 6.87536 8.40685 6.87536 8.75202C6.87536 9.09719 7.15517 9.377 7.50034 9.377C8.28744 9.377 9.13551 9.2694 9.90516 9.10261C9.64246 9.49006 9.32322 9.82746 8.97362 10.0857C8.95628 10.0956 8.93923 10.1061 8.92282 10.1178C8.57513 10.3648 8.20963 10.5255 7.84932 10.5902C7.72785 10.6116 7.63525 10.6226 7.55366 10.626C7.53581 10.6265 7.51797 10.627 7.50013 10.627C7.48179 10.627 7.46345 10.6265 7.44508 10.6259C7.36434 10.6226 7.27437 10.6121 7.16859 10.5938C6.79075 10.5254 6.42525 10.3648 6.07756 10.1178C6.06101 10.106 6.04381 10.0954 6.02629 10.0854C5.09273 9.39581 4.37518 8.14134 4.37518 6.87709V4.37711ZM13.7498 13.7522H1.24999V12.9322C1.24999 12.7631 1.3445 12.6066 1.49423 12.5278C2.82642 11.827 4.05796 11.3764 5.03815 11.2523H5.51876C6.1007 11.6285 6.74724 11.8564 7.40958 11.8755C7.43972 11.8765 7.46984 11.8773 7.49987 11.8773C7.52993 11.8773 7.56001 11.8765 7.59013 11.8755C8.25264 11.8565 8.89936 11.6286 9.48147 11.2523H9.96161C10.9423 11.3764 12.1738 11.8269 13.5063 12.5279C13.6556 12.6065 13.7498 12.7627 13.7498 12.9322V13.7522Z" fill="black"/>
</svg>
