<svg width="20" height="21" viewBox="0 0 20 21" fill="none" xmlns="http://www.w3.org/2000/svg">
<path fill-rule="evenodd" clip-rule="evenodd" d="M14.2939 13.083H13.3905L13.0703 12.7743C14.191 11.4707 14.8656 9.77827 14.8656 7.93721C14.8656 3.83201 11.538 0.504395 7.43282 0.504395C3.32762 0.504395 0 3.83201 0 7.93721C0 12.0424 3.32762 15.37 7.43282 15.37C9.27387 15.37 10.9663 14.6954 12.2699 13.5747L12.5786 13.8949V14.7983L18.2962 20.5044L20 18.8006L14.2939 13.083ZM7.43282 13.083C4.58548 13.083 2.28702 10.7846 2.28702 7.93721C2.28702 5.08987 4.58548 2.79142 7.43282 2.79142C10.2802 2.79142 12.5786 5.08987 12.5786 7.93721C12.5786 10.7846 10.2802 13.083 7.43282 13.083ZM6.45226 7.17106H3.33333V8.88633H6.45226V11.3377H8.59634V8.88633H11.6667V7.17106H8.59634V4.67106H6.45226V7.17106Z" fill="#F4F5F7"/>
</svg>
