<svg width="15" height="16" viewBox="0 0 15 16" fill="none" xmlns="http://www.w3.org/2000/svg">
<path d="M14.38 12.0683L12.8823 10.5706C12.6112 10.2997 12.2717 10.1074 11.9 10.0143C11.5282 9.92123 11.1382 9.93077 10.7715 10.0419C10.4047 10.1531 10.075 10.3617 9.81753 10.6456C9.56004 10.9294 9.38443 11.2778 9.30941 11.6536C6.83968 11.1918 4.43763 8.79961 4.28812 6.66148C4.70798 6.58424 5.09439 6.38103 5.39596 6.07886C5.79303 5.68174 6.01609 5.14317 6.01609 4.58161C6.01609 4.02004 5.79303 3.48147 5.39596 3.08436L3.8987 1.58668C3.50158 1.18962 2.96301 0.966553 2.40144 0.966553C1.83986 0.966553 1.30129 1.18962 0.904173 1.58668C-3.58804 6.07886 9.88775 19.5545 14.38 15.0624C14.7768 14.6652 14.9997 14.1267 14.9997 13.5653C14.9997 13.0039 14.7768 12.4654 14.38 12.0683Z" fill="#220E24"/>
<path d="M14.38 12.0683L12.8823 10.5706C12.6112 10.2997 12.2717 10.1074 11.9 10.0143C11.5282 9.92123 11.1382 9.93077 10.7715 10.0419C10.4047 10.1531 10.075 10.3617 9.81753 10.6456C9.56004 10.9294 9.38443 11.2778 9.30941 11.6536C6.83968 11.1918 4.43763 8.79961 4.28812 6.66148C4.70798 6.58424 5.09439 6.38103 5.39596 6.07886C5.79303 5.68174 6.01609 5.14317 6.01609 4.58161C6.01609 4.02004 5.79303 3.48147 5.39596 3.08436L3.8987 1.58668C3.50158 1.18962 2.96301 0.966553 2.40144 0.966553C1.83986 0.966553 1.30129 1.18962 0.904173 1.58668C-3.58804 6.07886 9.88775 19.5545 14.38 15.0624C14.7768 14.6652 14.9997 14.1267 14.9997 13.5653C14.9997 13.0039 14.7768 12.4654 14.38 12.0683Z" fill="black" fill-opacity="0.2"/>
</svg>
